<?xml version="1.0" encoding="UTF-8" standalone="no"?>
<!DOCTYPE svg PUBLIC "-//W3C//DTD SVG 1.1//EN" "http://www.w3.org/Graphics/SVG/1.1/DTD/svg11.dtd">
<svg width="100%" height="100%" viewBox="0 0 435 512" version="1.1" xmlns="http://www.w3.org/2000/svg" xmlns:xlink="http://www.w3.org/1999/xlink" xml:space="preserve" xmlns:serif="http://www.serif.com/" style="fill-rule:evenodd;clip-rule:evenodd;">
    <g id="Gallow">
        <path d="M431,512C431,484.386 343.024,462 234.5,462C125.976,462 38,484.386 38,512" style="fill:none;fill-rule:nonzero;stroke:black;stroke-width:8px;"/>
        <path d="M303,462.001L302.853,8.001" style="fill:none;fill-rule:nonzero;stroke:black;stroke-width:8px;"/>
        <path d="M70.671,4L306.853,4" style="fill:none;fill-rule:nonzero;stroke:black;stroke-width:8px;"/>
        <path d="M74.671,8L74.671,68.723" style="fill:none;fill-rule:nonzero;stroke:black;stroke-width:8px;"/>
        <path d="M234.097,5.292L304.944,82.292" style="fill:none;fill-rule:nonzero;stroke:black;stroke-width:8px;"/>
    </g>
    <path d="M145.343,198.259L-0,198.259" style="fill:none;fill-rule:nonzero;stroke:black;stroke-width:15px;"/>
    <g transform="matrix(-0.384792,0.923003,-0.922263,-0.386562,72.7275,309.096)">
        <path d="M0,-1.5L90.641,-1.5" style="fill:none;fill-rule:nonzero;stroke:rgb(109,119,120);stroke-width:3px;stroke-dasharray:2,2;"/>
    </g>
    <g transform="matrix(0.437625,0.899158,-0.898226,0.439535,71.7933,308.664)">
        <path d="M0,-1.5L90.63,-1.5" style="fill:none;fill-rule:nonzero;stroke:rgb(109,119,120);stroke-width:3px;stroke-dasharray:2,2;"/>
    </g>
    <path d="M74.171,163.361L74.171,309.096" style="fill:none;fill-rule:nonzero;stroke:black;stroke-width:15px;"/>
    <path d="M119.515,112.58C119.555,113.234 119.581,113.891 119.595,114.552L118.095,114.582C118.102,114.901 118.105,115.221 118.105,115.542C118.105,115.863 118.102,116.183 118.095,116.502L119.595,116.533C119.581,117.193 119.555,117.85 119.515,118.504L118.018,118.413C117.979,119.051 117.927,119.686 117.863,120.317L119.355,120.47C119.288,121.127 119.207,121.781 119.114,122.43L117.629,122.217C117.538,122.85 117.434,123.479 117.318,124.104L118.792,124.379C118.671,125.028 118.537,125.672 118.391,126.312L116.929,125.976C116.786,126.599 116.63,127.217 116.462,127.83L117.909,128.226C117.735,128.862 117.548,129.493 117.349,130.118L115.92,129.662C115.726,130.271 115.52,130.874 115.302,131.471L116.711,131.985C116.484,132.605 116.246,133.218 115.995,133.826L114.608,133.253C114.365,133.843 114.109,134.427 113.842,135.005L115.203,135.635C114.927,136.233 114.638,136.824 114.338,137.409L113.004,136.724C112.712,137.291 112.409,137.852 112.095,138.406L113.4,139.146C113.075,139.719 112.738,140.284 112.391,140.842L111.118,140.049C110.78,140.591 110.432,141.125 110.073,141.651L111.313,142.496C110.942,143.04 110.56,143.576 110.167,144.104L108.964,143.208C108.583,143.72 108.192,144.224 107.791,144.719L108.957,145.663C108.542,146.175 108.118,146.678 107.683,147.172L106.557,146.18C106.136,146.659 105.705,147.129 105.264,147.59L106.349,148.626C105.894,149.102 105.429,149.568 104.956,150.025L103.915,148.945C103.456,149.387 102.988,149.82 102.511,150.243L103.506,151.365C103.014,151.802 102.513,152.229 102.003,152.645L101.054,151.483C100.561,151.886 100.059,152.279 99.548,152.661L100.448,153.862C99.922,154.256 99.388,154.64 98.845,155.013L97.995,153.777C97.47,154.138 96.938,154.488 96.398,154.827L97.195,156.097C96.639,156.447 96.074,156.785 95.502,157.112L94.758,155.81C94.205,156.126 93.646,156.431 93.079,156.724L93.769,158.056C93.185,158.358 92.595,158.649 91.997,158.927L91.363,157.568C90.787,157.837 90.204,158.094 89.614,158.339L90.191,159.724C89.584,159.977 88.971,160.217 88.352,160.445L87.834,159.037C87.238,159.257 86.635,159.465 86.028,159.66L86.487,161.088C85.862,161.289 85.231,161.477 84.596,161.652L84.197,160.206C83.584,160.375 82.967,160.532 82.344,160.676L82.682,162.137C82.043,162.285 81.399,162.42 80.75,162.542L80.473,161.068C79.849,161.185 79.22,161.29 78.587,161.382L78.802,162.866C78.153,162.961 77.499,163.042 76.842,163.109L76.688,161.617C76.057,161.682 75.422,161.734 74.784,161.774L74.876,163.271C74.222,163.311 73.565,163.338 72.905,163.351L72.874,161.852C72.555,161.858 72.235,161.861 71.914,161.861C71.594,161.861 71.274,161.858 70.955,161.852L70.924,163.351C70.263,163.338 69.606,163.311 68.953,163.271L69.045,161.774C68.406,161.734 67.772,161.682 67.141,161.617L66.987,163.109C66.329,163.042 65.676,162.961 65.027,162.866L65.242,161.382C64.609,161.29 63.98,161.185 63.355,161.068L63.079,162.542C62.43,162.42 61.786,162.285 61.146,162.137L61.484,160.676C60.862,160.532 60.245,160.375 59.632,160.206L59.233,161.652C58.597,161.477 57.967,161.289 57.342,161.088L57.801,159.66C57.193,159.465 56.591,159.257 55.995,159.037L55.476,160.445C54.858,160.217 54.245,159.977 53.638,159.724L54.215,158.339C53.625,158.094 53.042,157.837 52.465,157.568L51.832,158.927C51.234,158.649 50.644,158.358 50.06,158.056L50.75,156.724C50.183,156.431 49.623,156.126 49.071,155.81L48.326,157.112C47.754,156.785 47.19,156.447 46.633,156.097L47.431,154.827C46.891,154.488 46.358,154.138 45.833,153.777L44.984,155.013C44.441,154.64 43.907,154.256 43.38,153.862L44.28,152.661C43.77,152.279 43.268,151.886 42.774,151.483L41.826,152.645C41.316,152.229 40.815,151.802 40.322,151.365L41.318,150.243C40.841,149.82 40.373,149.387 39.914,148.945L38.873,150.025C38.399,149.568 37.935,149.102 37.48,148.626L38.564,147.59C38.124,147.129 37.693,146.659 37.272,146.18L36.146,147.172C35.711,146.678 35.286,146.175 34.872,145.663L36.038,144.719C35.637,144.224 35.246,143.72 34.865,143.208L33.661,144.104C33.269,143.576 32.887,143.04 32.516,142.496L33.755,141.651C33.397,141.125 33.048,140.591 32.711,140.049L31.438,140.842C31.09,140.284 30.754,139.719 30.429,139.146L31.734,138.406C31.42,137.852 31.117,137.291 30.825,136.724L29.491,137.409C29.191,136.824 28.902,136.233 28.625,135.635L29.987,135.005C29.72,134.427 29.464,133.843 29.22,133.253L27.834,133.826C27.583,133.219 27.344,132.605 27.118,131.985L28.527,131.471C28.309,130.874 28.103,130.271 27.909,129.662L26.48,130.118C26.28,129.493 26.094,128.862 25.92,128.226L27.366,127.83C27.199,127.217 27.043,126.599 26.9,125.976L25.438,126.312C25.291,125.672 25.157,125.028 25.036,124.379L26.511,124.104C26.395,123.479 26.291,122.85 26.2,122.217L24.715,122.43C24.621,121.781 24.541,121.127 24.474,120.47L25.966,120.317C25.902,119.686 25.85,119.051 25.811,118.413L24.314,118.504C24.274,117.85 24.247,117.193 24.234,116.533L25.734,116.502C25.727,116.183 25.724,115.863 25.724,115.542C25.724,115.221 25.727,114.901 25.734,114.582L24.234,114.552C24.247,113.891 24.274,113.234 24.314,112.581L25.811,112.672C25.85,112.033 25.902,111.398 25.966,110.767L24.474,110.615C24.541,109.957 24.621,109.303 24.715,108.654L26.2,108.868C26.291,108.234 26.395,107.605 26.511,106.98L25.036,106.705C25.157,106.056 25.291,105.412 25.438,104.773L26.9,105.108C27.043,104.485 27.199,103.867 27.366,103.254L25.92,102.859C26.094,102.222 26.28,101.592 26.48,100.966L27.909,101.422C28.103,100.814 28.309,100.211 28.527,99.614L27.118,99.099C27.344,98.48 27.583,97.866 27.834,97.259L29.22,97.831C29.464,97.241 29.72,96.657 29.987,96.079L28.625,95.45C28.902,94.851 29.191,94.26 29.491,93.675L30.825,94.361C31.117,93.793 31.42,93.232 31.734,92.679L30.429,91.939C30.754,91.366 31.09,90.8 31.438,90.242L32.711,91.035C33.048,90.494 33.397,89.96 33.755,89.434L32.516,88.589C32.887,88.044 33.269,87.508 33.661,86.981L34.865,87.876C35.246,87.364 35.637,86.86 36.038,86.365L34.872,85.421C35.286,84.909 35.711,84.407 36.146,83.913L37.272,84.904C37.693,84.425 38.124,83.955 38.564,83.495L37.48,82.458C37.935,81.982 38.399,81.516 38.873,81.059L39.914,82.14C40.373,81.697 40.841,81.264 41.318,80.841L40.322,79.719C40.815,79.283 41.316,78.856 41.826,78.44L42.774,79.602C43.268,79.199 43.77,78.806 44.28,78.423L43.38,77.223C43.907,76.828 44.441,76.444 44.984,76.071L45.833,77.308C46.358,76.947 46.891,76.597 47.431,76.257L46.633,74.987C47.19,74.638 47.754,74.299 48.326,73.972L49.071,75.274C49.623,74.958 50.183,74.654 50.75,74.36L50.06,73.028C50.644,72.726 51.234,72.435 51.831,72.157L52.465,73.516C53.042,73.248 53.625,72.99 54.215,72.745L53.638,71.36C54.245,71.108 54.858,70.867 55.476,70.639L55.995,72.047C56.591,71.827 57.193,71.62 57.801,71.425L57.342,69.996C57.967,69.796 58.597,69.607 59.233,69.432L59.632,70.878C60.245,70.709 60.862,70.552 61.484,70.408L61.146,68.947C61.786,68.799 62.43,68.664 63.079,68.542L63.355,70.016C63.98,69.899 64.609,69.794 65.242,69.702L65.027,68.218C65.676,68.124 66.329,68.043 66.987,67.975L67.141,69.467C67.772,69.402 68.406,69.35 69.045,69.311L68.953,67.814C69.606,67.774 70.263,67.747 70.924,67.733L70.955,69.233C71.274,69.226 71.594,69.223 71.914,69.223C72.235,69.223 72.555,69.226 72.874,69.233L72.905,67.733C73.565,67.747 74.222,67.774 74.876,67.814L74.784,69.311C75.422,69.35 76.057,69.402 76.688,69.467L76.842,67.975C77.499,68.043 78.153,68.124 78.802,68.218L78.587,69.702C79.22,69.794 79.849,69.899 80.473,70.016L80.75,68.542C81.399,68.664 82.043,68.799 82.682,68.947L82.344,70.408C82.967,70.552 83.584,70.709 84.197,70.878L84.596,69.432C85.231,69.607 85.862,69.796 86.487,69.996L86.028,71.425C86.635,71.62 87.238,71.827 87.834,72.047L88.352,70.639C88.971,70.867 89.584,71.108 90.191,71.36L89.614,72.745C90.204,72.99 90.787,73.248 91.363,73.516L91.997,72.157C92.595,72.435 93.185,72.726 93.769,73.028L93.079,74.36C93.646,74.654 94.205,74.958 94.758,75.274L95.502,73.972C96.074,74.299 96.639,74.638 97.195,74.987L96.398,76.257C96.938,76.597 97.47,76.947 97.995,77.308L98.845,76.071C99.388,76.444 99.922,76.828 100.448,77.223L99.548,78.423C100.059,78.806 100.561,79.199 101.054,79.602L102.003,78.44C102.513,78.856 103.014,79.283 103.506,79.719L102.511,80.841C102.988,81.264 103.456,81.697 103.915,82.14L104.956,81.059C105.429,81.516 105.894,81.982 106.349,82.458L105.264,83.495C105.705,83.955 106.136,84.425 106.557,84.904L107.683,83.913C108.118,84.407 108.542,84.909 108.957,85.421L107.791,86.365C108.192,86.86 108.583,87.364 108.964,87.876L110.167,86.981C110.56,87.508 110.942,88.044 111.313,88.589L110.073,89.434C110.432,89.96 110.78,90.494 111.118,91.035L112.391,90.242C112.738,90.8 113.075,91.366 113.4,91.939L112.095,92.679C112.409,93.232 112.712,93.793 113.004,94.361L114.338,93.675C114.638,94.26 114.927,94.851 115.203,95.45L113.842,96.079C114.109,96.657 114.365,97.241 114.608,97.831L115.995,97.259C116.246,97.866 116.484,98.48 116.711,99.099L115.302,99.614C115.52,100.211 115.726,100.814 115.92,101.422L117.349,100.966C117.548,101.592 117.735,102.222 117.909,102.859L116.462,103.254C116.63,103.867 116.786,104.485 116.929,105.108L118.391,104.773C118.537,105.412 118.671,106.056 118.792,106.705L117.318,106.98C117.434,107.605 117.538,108.234 117.629,108.868L119.114,108.654C119.207,109.303 119.288,109.957 119.355,110.615L117.863,110.767C117.927,111.398 117.979,112.033 118.018,112.672L119.515,112.58Z" style="fill:none;fill-rule:nonzero;stroke:black;stroke-width:15px;"/>
</svg>
