<svg width="435" height="512" viewBox="0 0 435 512" fill="none" xmlns="http://www.w3.org/2000/svg">
<path d="M431 512C431 484.386 343.024 462 234.5 462C125.976 462 38 484.386 38 512" stroke="black" stroke-width="8"/>
<line x1="303" y1="462.001" x2="302.853" y2="8.00129" stroke="black" stroke-width="8"/>
<line x1="70.6713" y1="4.00003" x2="306.853" y2="4.00001" stroke="black" stroke-width="8"/>
<line x1="74.6713" y1="8.00003" x2="74.6713" y2="68.7229" stroke="black" stroke-width="8"/>
<line x1="234.097" y1="5.29168" x2="304.944" y2="82.2916" stroke="black" stroke-width="8"/>
<line x1="74.1713" y1="163.361" x2="74.1713" y2="309.096" stroke="#6D7778" stroke-width="3" stroke-dasharray="2 2"/>
<line x1="145.343" y1="198.259" x2="-1.30781e-07" y2="198.259" stroke="#6D7778" stroke-width="3" stroke-dasharray="2 2"/>
<line y1="-1.5" x2="90.6407" y2="-1.5" transform="matrix(-0.384792 0.923003 -0.922263 -0.386562 72.7275 309.096)" stroke="#6D7778" stroke-width="3" stroke-dasharray="2 2"/>
<line y1="-1.5" x2="90.6301" y2="-1.5" transform="matrix(0.437625 0.899158 -0.898226 0.439535 71.7933 308.664)" stroke="#6D7778" stroke-width="3" stroke-dasharray="2 2"/>
<path d="M119.515 112.58C119.555 113.234 119.581 113.891 119.595 114.552L118.095 114.582C118.102 114.901 118.105 115.221 118.105 115.542C118.105 115.863 118.102 116.183 118.095 116.502L119.595 116.533C119.581 117.193 119.555 117.85 119.515 118.504L118.018 118.413C117.979 119.051 117.927 119.686 117.863 120.317L119.355 120.47C119.288 121.127 119.207 121.781 119.114 122.43L117.629 122.217C117.538 122.85 117.434 123.479 117.318 124.104L118.792 124.379C118.671 125.028 118.537 125.672 118.391 126.312L116.929 125.976C116.786 126.599 116.63 127.217 116.462 127.83L117.909 128.226C117.735 128.862 117.548 129.493 117.349 130.118L115.92 129.662C115.726 130.271 115.52 130.874 115.302 131.471L116.711 131.985C116.484 132.605 116.246 133.218 115.995 133.826L114.608 133.253C114.365 133.843 114.109 134.427 113.842 135.005L115.203 135.635C114.927 136.233 114.638 136.824 114.338 137.409L113.004 136.724C112.712 137.291 112.409 137.852 112.095 138.406L113.4 139.146C113.075 139.719 112.738 140.284 112.391 140.842L111.118 140.049C110.78 140.591 110.432 141.125 110.073 141.651L111.313 142.496C110.942 143.04 110.56 143.576 110.167 144.104L108.964 143.208C108.583 143.72 108.192 144.224 107.791 144.719L108.957 145.663C108.542 146.175 108.118 146.678 107.683 147.172L106.557 146.18C106.136 146.659 105.705 147.129 105.264 147.59L106.349 148.626C105.894 149.102 105.429 149.568 104.956 150.025L103.915 148.945C103.456 149.387 102.988 149.82 102.511 150.243L103.506 151.365C103.014 151.802 102.513 152.229 102.003 152.645L101.054 151.483C100.561 151.886 100.059 152.279 99.5483 152.661L100.448 153.862C99.9221 154.256 99.3875 154.64 98.8449 155.013L97.9952 153.777C97.4704 154.138 96.9377 154.488 96.3976 154.827L97.1954 156.097C96.6387 156.447 96.0742 156.785 95.5024 157.112L94.7579 155.81C94.2053 156.126 93.6455 156.431 93.0789 156.724L93.7688 158.056C93.1852 158.358 92.5945 158.649 91.9972 158.927L91.3634 157.568C90.7867 157.837 90.2035 158.094 89.6141 158.339L90.1907 159.724C89.5841 159.977 88.9712 160.217 88.3523 160.445L87.834 159.037C87.2376 159.257 86.6353 159.465 86.0276 159.66L86.4866 161.088C85.8618 161.289 85.2313 161.477 84.5956 161.652L84.1966 160.206C83.5842 160.375 82.9666 160.532 82.3442 160.676L82.6824 162.137C82.0431 162.285 81.399 162.42 80.7502 162.542L80.4733 161.068C79.8488 161.185 79.2199 161.29 78.5868 161.382L78.8021 162.866C78.1528 162.961 77.4993 163.042 76.8418 163.109L76.6882 161.617C76.0572 161.682 75.4224 161.734 74.784 161.774L74.876 163.271C74.2224 163.311 73.5652 163.338 72.9048 163.351L72.8741 161.852C72.555 161.858 72.2351 161.861 71.9143 161.861C71.5936 161.861 71.2737 161.858 70.9546 161.852L70.9239 163.351C70.2635 163.338 69.6063 163.311 68.9527 163.271L69.0447 161.774C68.4063 161.734 67.7715 161.682 67.1405 161.617L66.9869 163.109C66.3294 163.042 65.6759 162.961 65.0265 162.866L65.2419 161.382C64.6088 161.29 63.9799 161.185 63.3554 161.068L63.0785 162.542C62.4297 162.42 61.7855 162.285 61.1463 162.137L61.4845 160.676C60.8621 160.532 60.2445 160.375 59.632 160.206L59.2331 161.652C58.5974 161.477 57.9669 161.289 57.3421 161.088L57.8011 159.66C57.1934 159.465 56.5911 159.257 55.9946 159.037L55.4764 160.445C54.8575 160.217 54.2446 159.977 53.638 159.724L54.2146 158.339C53.6252 158.094 53.042 157.837 52.4652 157.568L51.8315 158.927C51.2341 158.649 50.6435 158.358 50.0599 158.056L50.7497 156.724C50.1831 156.431 49.6234 156.126 49.0708 155.81L48.3263 157.112C47.7544 156.785 47.19 156.447 46.6333 156.097L47.4311 154.827C46.891 154.488 46.3583 154.138 45.8334 153.777L44.9838 155.013C44.4412 154.64 43.9066 154.256 43.3804 153.862L44.2803 152.661C43.7701 152.279 43.2679 151.886 42.7742 151.483L41.8257 152.645C41.3157 152.229 40.8145 151.802 40.3224 151.365L41.3179 150.243C40.841 149.82 40.3729 149.387 39.9139 148.945L38.873 150.025C38.3992 149.568 37.9347 149.102 37.48 148.626L38.5643 147.59C38.1239 147.129 37.6928 146.659 37.2715 146.18L36.1455 147.172C35.7109 146.678 35.2862 146.175 34.8719 145.663L36.0376 144.719C35.6366 144.224 35.2455 143.72 34.8648 143.208L33.6613 144.104C33.2688 143.576 32.8869 143.04 32.5159 142.496L33.7553 141.651C33.3966 141.125 33.0484 140.591 32.711 140.049L31.4379 140.842C31.0903 140.284 30.7539 139.719 30.4289 139.146L31.7337 138.406C31.4196 137.852 31.1167 137.291 30.825 136.724L29.4908 137.409C29.1905 136.824 28.9019 136.233 28.6253 135.635L29.9867 135.005C29.7196 134.427 29.464 133.843 29.2203 133.253L27.8339 133.826C27.5831 133.219 27.3443 132.605 27.1181 131.985L28.527 131.471C28.309 130.874 28.1028 130.271 27.9089 129.662L26.4798 130.118C26.2804 129.493 26.0936 128.862 25.9195 128.226L27.3663 127.83C27.1986 127.217 27.0431 126.599 26.9001 125.976L25.4381 126.312C25.2913 125.672 25.1573 125.028 25.0364 124.379L26.511 124.104C26.3946 123.479 26.2907 122.85 26.1996 122.217L24.7149 122.43C24.6214 121.781 24.541 121.127 24.4739 120.47L25.9661 120.317C25.9017 119.686 25.8499 119.051 25.811 118.413L24.3137 118.504C24.2739 117.85 24.2472 117.193 24.2338 116.533L25.7335 116.502C25.727 116.183 25.7238 115.863 25.7238 115.542C25.7238 115.221 25.727 114.901 25.7335 114.582L24.2338 114.552C24.2472 113.891 24.2739 113.234 24.3137 112.581L25.811 112.672C25.8499 112.033 25.9017 111.398 25.9661 110.767L24.4739 110.615C24.541 109.957 24.6214 109.303 24.7149 108.654L26.1996 108.868C26.2907 108.234 26.3946 107.605 26.511 106.98L25.0364 106.705C25.1573 106.056 25.2913 105.412 25.4381 104.773L26.9001 105.108C27.0431 104.485 27.1986 103.867 27.3663 103.254L25.9195 102.859C26.0936 102.222 26.2804 101.592 26.4798 100.966L27.9089 101.422C28.1028 100.814 28.309 100.211 28.527 99.6136L27.1181 99.0991C27.3443 98.4795 27.5831 97.8659 27.8339 97.2585L29.2203 97.8311C29.464 97.2409 29.7196 96.6569 29.9867 96.0792L28.6253 95.4497C28.9019 94.8514 29.1905 94.2599 29.4908 93.6754L30.825 94.3608C31.1167 93.7931 31.4196 93.2322 31.7337 92.6785L30.4289 91.9385C30.7539 91.3655 31.0903 90.7999 31.4379 90.242L32.711 91.0352C33.0484 90.4937 33.3966 89.9597 33.7553 89.4335L32.5159 88.5885C32.8869 88.0444 33.2688 87.5084 33.6613 86.9807L34.8648 87.876C35.2455 87.3641 35.6366 86.8604 36.0376 86.3652L34.8719 85.4212C35.2862 84.9095 35.7109 84.4066 36.1455 83.9128L37.2715 84.9039C37.6928 84.4252 38.1239 83.9553 38.5643 83.4946L37.48 82.4581C37.9347 81.9824 38.3992 81.516 38.873 81.0594L39.9139 82.1396C40.3729 81.6972 40.841 81.2643 41.3179 80.8411L40.3224 79.7191C40.8145 79.2825 41.3157 78.8558 41.8257 78.4395L42.7742 79.6015C43.2679 79.1985 43.7701 78.8055 44.2803 78.4229L43.3804 77.2228C43.9066 76.8282 44.4412 76.4443 44.9838 76.0714L45.8334 77.3076C46.3583 76.9468 46.891 76.5967 47.4311 76.2574L46.6333 74.9872C47.19 74.6375 47.7544 74.2991 48.3262 73.9722L49.0707 75.2744C49.6234 74.9584 50.1831 74.6536 50.7497 74.3601L50.0599 73.0282C50.6435 72.7259 51.2341 72.4354 51.8314 72.157L52.4652 73.5165C53.042 73.2476 53.6252 72.9903 54.2145 72.7449L53.638 71.3602C54.2446 71.1076 54.8575 70.8673 55.4764 70.6394L55.9946 72.047C56.5911 71.8274 57.1933 71.6198 57.8011 71.4245L57.3421 69.9964C57.9669 69.7956 58.5973 69.6073 59.2331 69.4319L59.632 70.8779C60.2445 70.7089 60.8621 70.5523 61.4845 70.4083L61.1463 68.9469C61.7855 68.799 62.4297 68.6639 63.0785 68.542L63.3554 70.0163C63.9798 69.899 64.6087 69.7943 65.2419 69.7024L65.0265 68.218C65.6758 68.1238 66.3294 68.0427 66.9869 67.975L67.1405 69.4672C67.7715 69.4022 68.4063 69.35 69.0446 69.3108L68.9527 67.8136C69.6063 67.7735 70.2634 67.7465 70.9239 67.733L70.9545 69.2327C71.2737 69.2262 71.5936 69.2229 71.9143 69.2229C72.235 69.2229 72.555 69.2262 72.8741 69.2327L72.9047 67.733C73.5652 67.7465 74.2224 67.7735 74.876 67.8136L74.784 69.3108C75.4224 69.35 76.0572 69.4022 76.6882 69.4672L76.8417 67.975C77.4992 68.0427 78.1528 68.1238 78.8021 68.218L78.5868 69.7024C79.2199 69.7943 79.8488 69.899 80.4733 70.0163L80.7502 68.542C81.399 68.6639 82.0431 68.799 82.6824 68.9469L82.3442 70.4083C82.9666 70.5523 83.5842 70.7089 84.1966 70.8779L84.5956 69.4319C85.2313 69.6073 85.8617 69.7956 86.4866 69.9964L86.0276 71.4245C86.6353 71.6198 87.2375 71.8274 87.834 72.047L88.3523 70.6394C88.9712 70.8673 89.5841 71.1076 90.1907 71.3602L89.6141 72.7449C90.2035 72.9903 90.7867 73.2476 91.3634 73.5165L91.9972 72.157C92.5945 72.4354 93.1852 72.7259 93.7688 73.0282L93.0789 74.3601C93.6455 74.6536 94.2053 74.9584 94.7579 75.2743L95.5024 73.9722C96.0742 74.2991 96.6387 74.6375 97.1954 74.9872L96.3976 76.2574C96.9377 76.5967 97.4704 76.9468 97.9952 77.3076L98.8449 76.0714C99.3875 76.4443 99.9221 76.8282 100.448 77.2228L99.5483 78.4229C100.059 78.8055 100.561 79.1985 101.054 79.6015L102.003 78.4395C102.513 78.8558 103.014 79.2825 103.506 79.7191L102.511 80.8411C102.988 81.2643 103.456 81.6972 103.915 82.1396L104.956 81.0594C105.429 81.516 105.894 81.9824 106.349 82.4581L105.264 83.4946C105.705 83.9553 106.136 84.4252 106.557 84.9039L107.683 83.9128C108.118 84.4066 108.542 84.9095 108.957 85.4212L107.791 86.3652C108.192 86.8604 108.583 87.3641 108.964 87.876L110.167 86.9807C110.56 87.5084 110.942 88.0444 111.313 88.5885L110.073 89.4335C110.432 89.9597 110.78 90.4937 111.118 91.0352L112.391 90.242C112.738 90.7999 113.075 91.3655 113.4 91.9385L112.095 92.6785C112.409 93.2322 112.712 93.7931 113.004 94.3608L114.338 93.6753C114.638 94.2599 114.927 94.8514 115.203 95.4496L113.842 96.0792C114.109 96.6569 114.365 97.2409 114.608 97.8311L115.995 97.2585C116.246 97.8658 116.484 98.4795 116.711 99.0991L115.302 99.6136C115.52 100.211 115.726 100.814 115.92 101.422L117.349 100.966C117.548 101.592 117.735 102.222 117.909 102.859L116.462 103.254C116.63 103.867 116.786 104.485 116.929 105.108L118.391 104.773C118.537 105.412 118.671 106.056 118.792 106.705L117.318 106.98C117.434 107.605 117.538 108.234 117.629 108.868L119.114 108.654C119.207 109.303 119.288 109.957 119.355 110.615L117.863 110.767C117.927 111.398 117.979 112.033 118.018 112.672L119.515 112.58Z" stroke="#6D7778" stroke-width="3" stroke-dasharray="2 2"/>
</svg>
